# xmcd CD database file
#
# Track frame offsets:
#	150
#	14375
#	25267
#	40264
#	50612
#	65042
#	77837
#	91512
#	102672
#	117607
#	129015
#	144992
#	157317
#	168847
#	178632
#	189565
#	203757
#	227105
#	239732
#	250922
#	265400
#	275292
#	290750
#	303022
#	314147
#	327215
#
# Disc length: 4490 seconds
#
# Revision: 0
# Processed by: cddbd v1.5.1PL0 Copyright (c) Steve Scherf et al.
# Submitted via: CDex 1.51
#
DISCID=7e11881a
DTITLE=Kay Starr - The One-The Only and Blue Starr
DYEAR=2002
DGENRE=Jazz
TTITLE0=Hundred Years From Today, A
TTITLE1=Wrap Your Troubles In Dreams
TTITLE2=Glad Rag Doll
TTITLE3=Fit As A Fiddle
TTITLE4=My Buddy
TTITLE5=You Can Depend On Me
TTITLE6=I Want A Little Boy
TTITLE7=I'll Never Say "Never Again" Again
TTITLE8=Prisoner's Song, The
TTITLE9=Once More
TTITLE10=Georgia On My Mind
TTITLE11=Jump For Joy
TTITLE12=It's A Lonesome Old Town (When You're Not Around)
TTITLE13=You're Driving Me Crazy (What Did I Do?)
TTITLE14=House Is Haunted (By The Echo Of Your Last Goodbye)
TTITLE15=We Three (My Echo, My Shadow, And Me)
TTITLE16=I Really Don't Want To Know
TTITLE17=Blue Starr
TTITLE18=Wedding Bells
TTITLE19=It's Funny To Everyone But Me
TTITLE20=Little White Lies
TTITLE21=Just Like A Butterfly (That's Caught In The Rain)
TTITLE22=Blue And Sentimental
TTITLE23=Turn Right - (bonus track)
TTITLE24=For Better Or Worse
TTITLE25=I Couldn't Care Less
EXTD==YEAR: 2002
EXTT0=
EXTT1=
EXTT2=
EXTT3=
EXTT4=
EXTT5=
EXTT6=
EXTT7=
EXTT8=
EXTT9=
EXTT10=
EXTT11=
EXTT12=
EXTT13=
EXTT14=
EXTT15=
EXTT16=
EXTT17=
EXTT18=
EXTT19=
EXTT20=
EXTT21=
EXTT22=
EXTT23=
EXTT24=
EXTT25=
PLAYORDER=
